<svg width="24" height="24" viewBox="0 0 24 24" fill="none" xmlns="http://www.w3.org/2000/svg">
<rect width="24" height="24" rx="12" fill="#A20000"/>
<path fill-rule="evenodd" clip-rule="evenodd" d="M7.52851 7.52876C7.78886 7.26841 8.21097 7.26841 8.47132 7.52876L11.9999 11.0574L15.5285 7.52876C15.7889 7.26841 16.211 7.26841 16.4713 7.52876C16.7317 7.78911 16.7317 8.21122 16.4713 8.47157L12.9427 12.0002L16.4713 15.5288C16.7317 15.7891 16.7317 16.2112 16.4713 16.4716C16.211 16.7319 15.7889 16.7319 15.5285 16.4716L11.9999 12.943L8.47132 16.4716C8.21097 16.7319 7.78886 16.7319 7.52851 16.4716C7.26816 16.2112 7.26816 15.7891 7.52851 15.5288L11.0571 12.0002L7.52851 8.47157C7.26816 8.21122 7.26816 7.78911 7.52851 7.52876Z" fill="white"/>
</svg>
